<?xml version="1.0" encoding="UTF-8" standalone="no"?>
<svg
   id="Group_6"
   data-name="Group 6"
   width="100"
   height="100"
   viewBox="0 0 100 100"
   version="1.1"
   sodipodi:docname="logo (1).svg"
   inkscape:version="1.4 (86a8ad7, 2024-10-11)"
   xmlns:inkscape="http://www.inkscape.org/namespaces/inkscape"
   xmlns:sodipodi="http://sodipodi.sourceforge.net/DTD/sodipodi-0.dtd"
   xmlns="http://www.w3.org/2000/svg"
   xmlns:svg="http://www.w3.org/2000/svg">
  <sodipodi:namedview
     id="namedview1"
     pagecolor="#ffffff"
     bordercolor="#000000"
     borderopacity="0.25"
     inkscape:showpageshadow="2"
     inkscape:pageopacity="0.0"
     inkscape:pagecheckerboard="0"
     inkscape:deskcolor="#d1d1d1"
     inkscape:zoom="4.2245614"
     inkscape:cx="144.86711"
     inkscape:cy="38.228821"
     inkscape:window-width="2560"
     inkscape:window-height="1334"
     inkscape:window-x="-11"
     inkscape:window-y="-11"
     inkscape:window-maximized="1"
     inkscape:current-layer="Group_6" />
  <defs
     id="defs1">
    <clipPath
       id="clip-path">
      <rect
         id="Rectangle_14"
         data-name="Rectangle 14"
         width="285"
         height="50.988998"
         fill="none"
         x="0"
         y="0" />
    </clipPath>
  </defs>
  <g
     id="Group_5"
     data-name="Group 5"
     clip-path="url(#clip-path)"
     transform="translate(7.3380399,24.144518)">
    <path
       id="Path_64"
       data-name="Path 64"
       d="M 70.491,19.285 83.461,5.76 V 0.526 H 50.978 V 8.27 h 20.8 L 57.878,22.945 57.856,27 c 2.784552,-0.445594 5.600021,-0.669962 8.42,-0.671 6.769,0 10.409,3.954 10.409,8.041 0,4.8 -4.739,8.668 -10.69,8.668 -4.923506,0.153142 -9.805006,-0.94911 -14.185,-3.203 -1.42,-0.694 -2.987,-1.54 -4.664,-2.56 l 0.3,-0.562 C 54.94603,22.25117 46.917713,4.5851079 31.091005,0.7239997 15.264298,-3.1371085 0.00246499,8.8470528 0,25.138 0.00104027,29.797247 1.3062844,34.363176 3.768,38.319 5.6528522,36.555089 7.7660762,35.052322 10.051,33.851 8.4996295,31.20916 7.6801888,28.201668 7.677,25.138 7.6787726,13.74551 18.413464,5.406145 29.452621,8.2212295 40.491779,11.036314 45.922043,23.497888 40.468,33.5 36.345687,31.519336 31.841043,30.461427 27.268,30.4 23.512,30.342 13.93,31.286 5.661,41.023 c 1.5926086,1.952736 3.4683641,3.656252 5.565,5.054 v 0 c 8.846221,5.898132 20.453167,5.564512 28.946,-0.832 -2.163706,-1.833562 -4.559267,-3.374453 -7.125,-4.583 -2.444898,1.27097 -5.159481,1.93564 -7.915,1.938 -2.705165,-0.003 -5.372268,-0.637545 -7.789,-1.853 2.948127,-1.835639 6.348141,-2.816419 9.821,-2.833 h 0.178 c 4.4,0 9.262,1.642 14.455,4.881 2.360324,1.486005 4.811837,2.821979 7.34,4 v 0 c 0.051,0.024 0.1,0.045 0.151,0.069 l 0.093,0.042 c 5.211112,2.668263 10.979502,4.065986 16.834,4.079 13.486,0 19.146,-7.263 19.146,-15.868 0.0789,-8.406892 -6.474744,-15.385841 -14.87,-15.835"
       fill="#fc7800"
       sodipodi:nodetypes="cccccccccsccccsccccscccsscccccscssccccc"
       transform="translate(0,0.001)" />
  </g>
</svg>
