<svg width="187" height="57" viewBox="0 0 187 57" fill="none" xmlns="http://www.w3.org/2000/svg">
<g filter="url(#filter0_i_11_100)">
<path fill-rule="evenodd" clip-rule="evenodd" d="M56 5.99672C56 2.68301 53.3124 -1.12141e-09 49.9987 1.39542e-08C31.9548 9.60442e-08 14.7517 5.20996e-07 5.99895 7.70442e-07C2.68524 8.6488e-07 0 2.6863 0 6.00001V51C0 54.3137 2.6801 57 5.9938 57C11.1209 57 19.0725 57 28 57H50C53.3137 57 56 54.3137 56 51V50.4935C56 50.4935 56 50.4935 56 17.488C56 13.0866 56 9.06848 56 5.99672ZM20.928 43.12C20.928 45.296 22.08 46.384 24.384 46.384C26.688 46.384 27.84 45.296 27.84 43.12V31.984C27.84 30.48 28.176 29.344 28.848 28.576C29.52 27.776 30.464 27.376 31.68 27.376C32.896 27.376 33.84 27.776 34.512 28.576C35.184 29.344 35.52 30.48 35.52 31.984V43.12C35.52 45.296 36.672 46.384 38.976 46.384C41.28 46.384 42.432 45.296 42.432 43.12V31.6C42.432 28.528 41.44 26.096 39.456 24.304C37.504 22.512 34.912 21.616 31.68 21.616C28.448 21.616 25.84 22.512 23.856 24.304C21.904 26.096 20.928 28.528 20.928 31.6V43.12Z" fill="#202020"/>
<path fill-rule="evenodd" clip-rule="evenodd" d="M73.16 46.384C69.96 46.384 67.448 45.856 65.624 44.8C63.832 43.744 62.552 42.288 61.784 40.432C61.048 38.576 60.68 36.448 60.68 34.048C60.68 29.632 61.656 26.464 63.608 24.544C65.56 22.592 68.184 21.616 71.48 21.616C73.464 21.616 75.224 21.952 76.76 22.624C78.296 23.296 79.496 24.256 80.36 25.504C81.224 26.72 81.656 28.208 81.656 29.968C81.656 35.088 78.008 37.648 70.712 37.648H67.928C68.184 38.64 68.6 39.424 69.176 40C69.784 40.544 70.84 40.816 72.344 40.816C73.176 40.816 73.848 40.768 74.36 40.672C74.872 40.576 75.352 40.48 75.8 40.384C76.28 40.288 76.824 40.24 77.432 40.24C78.296 40.24 78.984 40.4 79.496 40.72C80.008 41.008 80.264 41.616 80.264 42.544C80.264 43.856 79.688 44.832 78.536 45.472C77.416 46.08 75.624 46.384 73.16 46.384ZM67.592 34.096C67.848 33.744 68.136 33.52 68.456 33.424C68.776 33.296 69.272 33.232 69.944 33.232C71.832 33.232 73.128 33.056 73.832 32.704C74.568 32.32 74.936 31.648 74.936 30.688C74.936 29.472 74.6 28.544 73.928 27.904C73.256 27.232 72.408 26.896 71.384 26.896C70.2 26.896 69.272 27.392 68.6 28.384C67.928 29.376 67.592 31.28 67.592 34.096Z" fill="#202020"/>
<path d="M89.5437 44.272C90.9837 45.68 93.1917 46.384 96.1677 46.384C97.9917 46.384 99.3197 46.08 100.152 45.472C100.984 44.832 101.4 43.856 101.4 42.544C101.4 41.616 101.144 41.008 100.632 40.72C100.12 40.4 99.4317 40.24 98.5677 40.24C98.0557 40.24 97.6237 40.304 97.2718 40.432C96.9518 40.528 96.4557 40.576 95.7837 40.576C95.2717 40.576 94.9037 40.384 94.6797 40C94.4557 39.584 94.3437 38.896 94.3437 37.936V27.808H98.3278C100.504 27.808 101.592 26.832 101.592 24.88C101.592 22.96 100.504 22 98.3278 22H93.7677C94.1517 21.232 94.3437 20.256 94.3437 19.072V16.72C94.3437 15.632 94.0397 14.784 93.4317 14.176C92.8237 13.536 92.0077 13.216 90.9837 13.216C89.9277 13.216 89.0637 13.552 88.3917 14.224C87.7517 14.896 87.4317 15.76 87.4317 16.816V22H86.1837C84.0077 22 82.9197 22.96 82.9197 24.88C82.9197 26.832 84.0077 27.808 86.1837 27.808H87.4317V37.792C87.4317 40.704 88.1357 42.864 89.5437 44.272Z" fill="#202020"/>
<path d="M109.636 17.488C108.452 17.488 107.46 17.104 106.66 16.336C105.86 15.568 105.46 14.624 105.46 13.504C105.46 12.32 105.86 11.344 106.66 10.576C107.46 9.80798 108.452 9.42398 109.636 9.42398C110.852 9.42398 111.844 9.80798 112.612 10.576C113.412 11.344 113.812 12.32 113.812 13.504C113.812 14.624 113.412 15.568 112.612 16.336C111.844 17.104 110.852 17.488 109.636 17.488Z" fill="#202020"/>
<path d="M113.092 43.168C113.092 45.312 111.972 46.384 109.732 46.384C108.644 46.384 107.78 46.128 107.14 45.616C106.5 45.072 106.18 44.256 106.18 43.168V24.88C106.18 23.856 106.436 23.056 106.948 22.48C107.492 21.904 108.388 21.616 109.636 21.616C110.884 21.616 111.764 21.904 112.276 22.48C112.82 23.056 113.092 23.856 113.092 24.88V43.168Z" fill="#202020"/>
<path d="M117.543 42.4C117.543 45.056 120.551 46.384 126.567 46.384C129.575 46.384 131.927 45.712 133.623 44.368C135.351 42.992 136.215 41.184 136.215 38.944C136.215 37.024 135.655 35.488 134.535 34.336C133.415 33.152 131.671 32.208 129.303 31.504C127.575 30.992 126.407 30.528 125.799 30.112C125.191 29.664 124.887 29.12 124.887 28.48C124.887 27.392 125.655 26.848 127.191 26.848C127.735 26.848 128.247 26.896 128.727 26.992C129.239 27.088 129.719 27.216 130.167 27.376C130.775 27.536 131.287 27.664 131.703 27.76C132.151 27.856 132.535 27.904 132.855 27.904C133.623 27.904 134.231 27.648 134.679 27.136C135.127 26.624 135.351 25.984 135.351 25.216C135.351 24 134.695 23.072 133.383 22.432C132.071 21.792 130.263 21.472 127.959 21.472C124.887 21.472 122.471 22.112 120.711 23.392C118.951 24.672 118.071 26.528 118.071 28.96C118.071 30.688 118.551 32.144 119.511 33.328C120.503 34.48 121.799 35.28 123.399 35.728C125.159 36.24 126.455 36.64 127.287 36.928C128.119 37.216 128.663 37.52 128.919 37.84C129.175 38.128 129.303 38.544 129.303 39.088C129.303 39.76 129.063 40.24 128.583 40.528C128.103 40.816 127.287 40.96 126.135 40.96C125.527 40.96 124.903 40.896 124.263 40.768C123.623 40.64 123.111 40.512 122.727 40.384C121.831 40.096 121.223 39.92 120.903 39.856C120.615 39.76 120.311 39.712 119.991 39.712C119.255 39.712 118.663 39.952 118.215 40.432C117.767 40.912 117.543 41.568 117.543 42.4Z" fill="#202020"/>
<path fill-rule="evenodd" clip-rule="evenodd" d="M149.645 46.384C146.445 46.384 143.949 45.648 142.157 44.176C140.365 42.672 139.469 40.736 139.469 38.368C139.469 35.584 140.637 33.568 142.973 32.32C145.341 31.072 148.797 30.64 153.341 31.024C153.117 29.552 152.653 28.56 151.949 28.048C151.245 27.504 150.397 27.232 149.405 27.232C148.605 27.232 147.933 27.28 147.389 27.376C146.877 27.44 146.397 27.52 145.949 27.616C145.501 27.712 144.957 27.76 144.317 27.76C143.453 27.76 142.765 27.616 142.253 27.328C141.741 27.008 141.485 26.384 141.485 25.456C141.485 24.144 142.045 23.184 143.165 22.576C144.317 21.936 146.125 21.616 148.589 21.616C152.493 21.616 155.389 22.736 157.277 24.976C159.165 27.184 160.109 30.144 160.109 33.856C160.109 38.144 159.325 41.312 157.757 43.36C156.221 45.376 153.517 46.384 149.645 46.384ZM146.381 38.368C146.381 40.192 147.613 41.104 150.077 41.104C150.877 41.104 151.501 40.96 151.949 40.672C152.397 40.384 152.717 39.808 152.909 38.944C153.133 38.08 153.293 36.784 153.389 35.056C153.229 35.216 153.021 35.328 152.765 35.392C152.509 35.456 152.253 35.488 151.997 35.488C149.885 35.488 148.413 35.696 147.581 36.112C146.781 36.496 146.381 37.248 146.381 38.368Z" fill="#202020"/>
<path d="M164.725 43.12C164.725 45.296 165.877 46.384 168.181 46.384C170.485 46.384 171.637 45.296 171.637 43.12V31.984C171.637 30.48 171.973 29.344 172.645 28.576C173.317 27.776 174.261 27.376 175.477 27.376C176.693 27.376 177.637 27.776 178.309 28.576C178.981 29.344 179.317 30.48 179.317 31.984V43.12C179.317 45.296 180.469 46.384 182.773 46.384C185.077 46.384 186.229 45.296 186.229 43.12V31.6C186.229 28.528 185.237 26.096 183.253 24.304C181.301 22.512 178.709 21.616 175.477 21.616C172.245 21.616 169.637 22.512 167.653 24.304C165.701 26.096 164.725 28.528 164.725 31.6V43.12Z" fill="#202020"/>
</g>
<defs>
<filter id="filter0_i_11_100" x="0" y="0" width="186.229" height="60.7" filterUnits="userSpaceOnUse" color-interpolation-filters="sRGB">
<feFlood flood-opacity="0" result="BackgroundImageFix"/>
<feBlend mode="normal" in="SourceGraphic" in2="BackgroundImageFix" result="shape"/>
<feColorMatrix in="SourceAlpha" type="matrix" values="0 0 0 0 0 0 0 0 0 0 0 0 0 0 0 0 0 0 127 0" result="hardAlpha"/>
<feOffset dy="4"/>
<feGaussianBlur stdDeviation="1.85"/>
<feComposite in2="hardAlpha" operator="arithmetic" k2="-1" k3="1"/>
<feColorMatrix type="matrix" values="0 0 0 0 0 0 0 0 0 0 0 0 0 0 0 0 0 0 0.25 0"/>
<feBlend mode="normal" in2="shape" result="effect1_innerShadow_11_100"/>
</filter>
</defs>
</svg>
